<?xml version="1.0" standalone="no"?>
<!DOCTYPE svg PUBLIC "-//W3C//DTD SVG 20010904//EN"
 "http://www.w3.org/TR/2001/REC-SVG-20010904/DTD/svg10.dtd">
<svg version="1.0" xmlns="http://www.w3.org/2000/svg"
 width="792.000000pt" height="184.000000pt" viewBox="0 0 792.000000 184.000000"
 preserveAspectRatio="xMidYMid meet">

<g transform="translate(0.000000,184.000000) scale(0.100000,-0.100000)"
fill="#000000" stroke="none">
<path d="M0 920 l0 -920 3960 0 3960 0 0 920 0 920 -3960 0 -3960 0 0 -920z
m1130 760 c263 -63 464 -250 557 -515 25 -74 27 -91 27 -235 0 -144 -2 -161
-27 -235 -54 -153 -136 -273 -254 -366 -386 -307 -949 -184 -1171 256 -60 120
-77 196 -77 345 0 114 4 147 23 210 60 190 167 336 321 435 178 115 398 153
601 105z m3570 -434 c0 -29 -4 -35 -27 -41 -46 -11 -63 -33 -63 -82 l0 -43 50
0 50 0 0 -35 0 -35 -50 0 -50 0 0 -210 0 -210 -45 0 -45 0 0 210 0 210 -30 0
c-28 0 -30 3 -30 35 0 32 2 35 30 35 27 0 30 3 30 33 0 48 18 102 39 121 23
21 86 45 119 46 18 0 22 -5 22 -34z m1260 -111 c3 -66 8 -112 12 -102 21 50
166 74 236 38 91 -47 104 -82 110 -303 l4 -178 -45 0 -46 0 -3 181 -3 181 -32
28 c-61 55 -162 48 -207 -13 -19 -26 -21 -44 -24 -203 l-3 -174 -45 0 -44 0 0
328 c0 181 3 332 7 336 4 4 23 6 43 4 l35 -3 5 -120z m1720 -210 l0 -335 -40
0 -40 0 0 335 0 335 40 0 40 0 0 -335z m-2564 269 c46 -26 72 -59 81 -104 5
-29 5 -30 -36 -30 -37 0 -44 4 -61 33 -24 40 -57 57 -111 57 -56 0 -95 -23
-108 -63 -24 -70 13 -108 142 -148 127 -39 176 -80 184 -152 13 -117 -74 -200
-209 -199 -113 0 -208 66 -208 144 0 26 3 28 40 28 36 0 41 -3 54 -34 20 -49
51 -66 117 -66 47 0 63 5 87 25 34 28 44 65 30 106 -13 38 -36 51 -153 87
-126 39 -165 73 -173 151 -2 29 1 64 8 81 18 45 83 98 127 105 21 4 43 8 48
10 24 8 103 -9 141 -31z m-2926 -194 c0 -258 7 -288 73 -322 51 -25 134 -21
175 9 53 39 57 59 60 306 l4 227 39 0 39 0 0 -216 c0 -238 -7 -284 -52 -338
-53 -64 -138 -91 -237 -75 -76 12 -127 49 -157 112 -23 50 -24 60 -24 285 l0
232 40 0 40 0 0 -220z m1200 145 l0 -65 66 0 65 0 -3 -32 c-3 -33 -3 -33 -65
-36 l-63 -3 0 -159 c0 -153 1 -159 22 -174 12 -9 42 -16 65 -16 42 0 43 0 43
-35 l0 -35 -55 0 c-65 0 -116 19 -139 51 -13 20 -16 53 -16 196 l0 172 -32 3
c-29 3 -33 7 -36 35 -3 29 -1 32 30 35 l33 3 3 63 3 62 39 0 40 0 0 -65z
m-347 -69 c49 -20 93 -77 106 -136 6 -28 11 -118 11 -200 l0 -150 -44 0 -45 0
-3 181 -3 181 -32 28 c-61 55 -162 48 -207 -13 -19 -26 -21 -44 -24 -203 l-3
-174 -45 0 -44 0 0 245 0 245 45 0 c44 0 45 -1 45 -32 l0 -33 18 22 c37 48
155 69 225 39z m817 -25 c0 -38 -1 -39 -42 -46 -103 -17 -118 -50 -118 -260
l0 -155 -40 0 -40 0 0 245 0 245 40 0 c39 0 40 -1 40 -36 l0 -37 20 25 c24 31
76 57 113 58 25 0 27 -3 27 -39z m379 29 c92 -26 152 -105 159 -212 l4 -58
-196 0 c-192 0 -196 0 -196 -21 0 -37 31 -88 67 -110 65 -40 171 -22 209 36
13 20 25 25 60 25 l43 0 -11 -30 c-16 -46 -90 -106 -149 -120 -157 -38 -294
63 -306 225 -11 128 44 222 153 260 46 17 116 19 163 5z m1384 -1 c62 -17 137
-95 137 -144 0 -11 -10 -15 -39 -15 -34 0 -42 4 -60 35 -38 64 -138 85 -201
42 -53 -35 -73 -78 -73 -156 0 -121 51 -184 147 -184 29 0 63 6 76 13 29 15
59 50 60 68 0 8 17 12 50 12 56 0 57 -4 11 -73 -87 -134 -314 -123 -397 19
-22 37 -28 63 -32 124 -4 68 -1 85 21 133 26 57 75 104 129 124 42 15 122 16
171 2z m1152 -13 c84 -39 125 -98 140 -198 15 -99 -45 -212 -139 -261 -57 -29
-165 -29 -222 1 -122 63 -171 223 -108 350 59 118 206 166 329 108z m588 -5
c157 -76 171 -325 26 -431 -123 -88 -300 -48 -368 85 -35 66 -36 179 -3 242
25 48 84 101 133 120 52 19 156 12 212 -16z"/>
<path d="M1217 1270 c-102 -18 -167 -87 -167 -178 0 -111 42 -148 229 -202 94
-27 131 -61 131 -118 0 -76 -60 -118 -157 -110 -50 4 -60 9 -85 39 -15 18 -28
41 -28 51 0 15 -9 18 -50 18 -50 0 -50 0 -44 -27 24 -100 110 -157 234 -156
138 2 233 99 215 220 -11 76 -57 114 -185 154 -58 17 -116 39 -129 48 -60 39
-59 134 2 171 68 42 173 14 205 -53 11 -23 19 -27 58 -27 51 0 55 10 24 70
-26 50 -80 87 -149 100 -30 5 -54 9 -55 9 0 -1 -23 -5 -49 -9z"/>
<path d="M400 1045 c0 -252 8 -308 54 -367 47 -62 108 -90 198 -90 114 0 183
38 231 127 21 38 22 56 25 298 l3 257 -45 0 -46 0 0 -245 c0 -273 -4 -295 -61
-336 -22 -16 -51 -24 -90 -27 -75 -6 -130 23 -159 83 -18 38 -20 62 -20 283
l0 242 -45 0 -45 0 0 -225z"/>
<path d="M4090 1002 c-40 -20 -80 -74 -80 -108 l0 -24 150 0 150 0 0 28 c0 92
-125 152 -220 104z"/>
<path d="M6590 997 c-59 -31 -84 -80 -83 -163 1 -108 60 -174 155 -174 53 0
79 10 116 44 84 76 63 243 -38 294 -56 28 -96 28 -150 -1z"/>
<path d="M7186 1010 c-94 -30 -137 -168 -83 -270 39 -74 133 -102 213 -64 65
31 100 117 84 205 -18 99 -119 159 -214 129z"/>
</g>
</svg>
